<?xml version="1.0" encoding="UTF-8" standalone="no"?>
<svg
   width="128"
   height="128"
   viewBox="-14 -3 128 128"
   fill="none"
   version="1.1"
   id="svg6"
   xmlns="http://www.w3.org/2000/svg"
   xmlns:svg="http://www.w3.org/2000/svg">
  <defs
     id="defs6" />
  <path
     d="M 71.6725,0 H 49.5146 v 25.4923 h 22.1579 z"
     fill="#2a3647"
     id="path1" />
  <path
     d="m 49.5142,46.2251 h 22.1579 v 35.9528 c 0.1012,8.6513 -2.3609,17.1374 -7.0735,24.3791 -4.6531,7.037 -13.6356,15.409 -30.254,15.409 C 16.2434,121.966 5.69286,113.406 0,108.715 L 13.9765,91.4743 c 5.5565,4.5369 10.9085,8.2692 20.4534,8.2692 7.2268,0 10.1073,-2.9447 11.7948,-5.5128 2.2939,-3.567 3.4805,-7.7384 3.4088,-11.9843 z"
     fill="#2a3647"
     id="path2" />
  <path
     d="M 38.2135,30.1318 H 16.0557 v 22.2566 h 22.1578 z"
     fill="#29abe2"
     id="path3" />
  <path
     d="m 83.2795,111.522 c 0,4.743 -2.4033,7.293 -5.7611,7.293 -3.3577,0 -5.5565,-3.03 -5.5565,-7.053 0,-4.023 2.2669,-7.208 5.744,-7.208 3.4771,0 5.5736,3.133 5.5736,6.968 z m -8.7439,0.189 c 0,2.859 1.142,4.964 3.1021,4.964 1.9601,0 3.068,-2.225 3.068,-5.136 0,-2.551 -1.0226,-4.947 -3.068,-4.947 -2.0453,0 -3.1021,2.311 -3.1021,5.119 z"
     fill="#2a3647"
     id="path4" />
  <path
     d="m 87.6771,104.76 v 13.833 H 85.2227 V 104.76 Z"
     fill="#2a3647"
     id="path5" />
  <path
     d="M 90.3359,118.593 V 104.76 h 2.7272 l 2.9316,5.701 c 0.7547,1.491 1.4262,3.022 2.0113,4.588 -0.1534,-1.712 -0.2216,-3.681 -0.2216,-5.872 v -4.417 h 2.2496 v 13.833 h -2.5394 l -2.9657,-5.821 c -0.7852,-1.529 -1.4851,-3.101 -2.0965,-4.708 0,1.712 0.1193,3.647 0.1193,6.026 v 4.486 z"
     fill="#2a3647"
     id="path6" />
</svg>
